<svg width="224" height="27" viewBox="0 0 224 27" fill="none" xmlns="http://www.w3.org/2000/svg">
<path d="M0.385195 26V0.449999H5.6352V10.25H11.5152V0.449999H16.7652V26H11.5152V15.15H5.6352V26H0.385195ZM21.3615 26V0.449999H37.1115V4.93H26.5065V10.67H35.8865V15.15H26.5065V21.52H37.1115V26H21.3615ZM40.5179 26V0.449999H46.4329L48.7779 8.5C49.0345 9.34 49.2212 10.075 49.3379 10.705C49.4779 11.335 49.5595 11.7783 49.5829 12.035C49.6062 11.7783 49.6762 11.335 49.7929 10.705C49.9329 10.075 50.1195 9.34 50.3529 8.5L52.6629 0.449999H58.5779V26H53.7829V19C53.7829 17.7167 53.8062 16.375 53.8529 14.975C53.9229 13.5517 54.0045 12.14 54.0979 10.74C54.1912 9.34 54.2962 8.03333 54.4129 6.82C54.5295 5.58333 54.6345 4.51 54.7279 3.6L51.7879 15.15H47.3429L44.2629 3.6C44.3795 4.46333 44.4962 5.50167 44.6129 6.715C44.7295 7.905 44.8345 9.2 44.9279 10.6C45.0445 11.9767 45.1379 13.3883 45.2079 14.835C45.2779 16.2817 45.3129 17.67 45.3129 19V26H40.5179ZM70.0342 26.35C68.3308 26.35 66.8492 26.035 65.5892 25.405C64.3292 24.7517 63.3492 23.8533 62.6492 22.71C61.9725 21.5433 61.6342 20.19 61.6342 18.65V7.8C61.6342 6.26 61.9725 4.91833 62.6492 3.775C63.3492 2.60833 64.3292 1.71 65.5892 1.08C66.8492 0.426666 68.3308 0.0999997 70.0342 0.0999997C71.7608 0.0999997 73.2425 0.426666 74.4792 1.08C75.7392 1.71 76.7075 2.60833 77.3842 3.775C78.0842 4.91833 78.4342 6.26 78.4342 7.8V18.65C78.4342 20.19 78.0842 21.5433 77.3842 22.71C76.7075 23.8533 75.7392 24.7517 74.4792 25.405C73.2425 26.035 71.7608 26.35 70.0342 26.35ZM70.0342 21.8C71.0842 21.8 71.8658 21.5317 72.3792 20.995C72.9158 20.435 73.1842 19.6533 73.1842 18.65V7.8C73.1842 6.77333 72.9275 5.99167 72.4142 5.455C71.9008 4.91833 71.1075 4.65 70.0342 4.65C68.9608 4.65 68.1675 4.91833 67.6542 5.455C67.1408 5.99167 66.8842 6.77333 66.8842 7.8V18.65C66.8842 19.6533 67.1408 20.435 67.6542 20.995C68.1908 21.5317 68.9842 21.8 70.0342 21.8Z" fill="#880808"/>
<path d="M90.6605 26.35C88.9572 26.35 87.4638 26.035 86.1805 25.405C84.8972 24.7517 83.8938 23.8533 83.1705 22.71C82.4705 21.5433 82.1205 20.19 82.1205 18.65V7.8C82.1205 6.23667 82.4705 4.88333 83.1705 3.74C83.8938 2.59666 84.8972 1.71 86.1805 1.08C87.4638 0.426666 88.9572 0.0999997 90.6605 0.0999997C92.3872 0.0999997 93.8805 0.426666 95.1405 1.08C96.4238 1.71 97.4155 2.59666 98.1155 3.74C98.8388 4.88333 99.2005 6.23667 99.2005 7.8H93.9505C93.9505 6.77333 93.6588 5.99167 93.0755 5.455C92.5155 4.91833 91.7105 4.65 90.6605 4.65C89.6105 4.65 88.7938 4.91833 88.2105 5.455C87.6505 5.99167 87.3705 6.77333 87.3705 7.8V18.65C87.3705 19.6533 87.6505 20.435 88.2105 20.995C88.7938 21.5317 89.6105 21.8 90.6605 21.8C91.7105 21.8 92.5155 21.5317 93.0755 20.995C93.6588 20.435 93.9505 19.6533 93.9505 18.65H99.2005C99.2005 20.19 98.8388 21.5433 98.1155 22.71C97.4155 23.8533 96.4238 24.7517 95.1405 25.405C93.8805 26.035 92.3872 26.35 90.6605 26.35ZM111.007 26.35C109.304 26.35 107.822 26.035 106.562 25.405C105.302 24.7517 104.322 23.8533 103.622 22.71C102.945 21.5433 102.607 20.19 102.607 18.65V7.8C102.607 6.26 102.945 4.91833 103.622 3.775C104.322 2.60833 105.302 1.71 106.562 1.08C107.822 0.426666 109.304 0.0999997 111.007 0.0999997C112.734 0.0999997 114.215 0.426666 115.452 1.08C116.712 1.71 117.68 2.60833 118.357 3.775C119.057 4.91833 119.407 6.26 119.407 7.8V18.65C119.407 20.19 119.057 21.5433 118.357 22.71C117.68 23.8533 116.712 24.7517 115.452 25.405C114.215 26.035 112.734 26.35 111.007 26.35ZM111.007 21.8C112.057 21.8 112.839 21.5317 113.352 20.995C113.889 20.435 114.157 19.6533 114.157 18.65V7.8C114.157 6.77333 113.9 5.99167 113.387 5.455C112.874 4.91833 112.08 4.65 111.007 4.65C109.934 4.65 109.14 4.91833 108.627 5.455C108.114 5.99167 107.857 6.77333 107.857 7.8V18.65C107.857 19.6533 108.114 20.435 108.627 20.995C109.164 21.5317 109.957 21.8 111.007 21.8ZM123.093 26V0.449999H129.218L135.833 20.225C135.763 19.3617 135.681 18.37 135.588 17.25C135.495 16.1067 135.413 14.975 135.343 13.855C135.296 12.7117 135.273 11.7433 135.273 10.95V0.449999H139.893V26H133.768L127.223 6.225C127.293 6.97167 127.363 7.85833 127.433 8.885C127.503 9.91167 127.561 10.95 127.608 12C127.678 13.05 127.713 13.9833 127.713 14.8V26H123.093ZM144.279 26V0.449999H160.029V4.93H149.424V10.67H158.804V15.15H149.424V21.52H160.029V26H144.279ZM172.606 26.35C170.902 26.35 169.409 26.035 168.126 25.405C166.842 24.7517 165.839 23.8533 165.116 22.71C164.416 21.5433 164.066 20.19 164.066 18.65V7.8C164.066 6.23667 164.416 4.88333 165.116 3.74C165.839 2.59666 166.842 1.71 168.126 1.08C169.409 0.426666 170.902 0.0999997 172.606 0.0999997C174.332 0.0999997 175.826 0.426666 177.086 1.08C178.369 1.71 179.361 2.59666 180.061 3.74C180.784 4.88333 181.146 6.23667 181.146 7.8H175.896C175.896 6.77333 175.604 5.99167 175.021 5.455C174.461 4.91833 173.656 4.65 172.606 4.65C171.556 4.65 170.739 4.91833 170.156 5.455C169.596 5.99167 169.316 6.77333 169.316 7.8V18.65C169.316 19.6533 169.596 20.435 170.156 20.995C170.739 21.5317 171.556 21.8 172.606 21.8C173.656 21.8 174.461 21.5317 175.021 20.995C175.604 20.435 175.896 19.6533 175.896 18.65H181.146C181.146 20.19 180.784 21.5433 180.061 22.71C179.361 23.8533 178.369 24.7517 177.086 25.405C175.826 26.035 174.332 26.35 172.606 26.35ZM190.327 26V5.35H183.852V0.449999H202.052V5.35H195.577V26H190.327ZM203.813 26L210.078 0.449999H216.728L223.063 26H217.708L216.483 20.225H210.393L209.168 26H203.813ZM211.268 16.025H215.573L214.348 9.865C214.185 8.97833 214.01 8.10333 213.823 7.24C213.66 6.35333 213.532 5.665 213.438 5.175C213.345 5.665 213.217 6.34167 213.053 7.205C212.913 8.06833 212.75 8.94333 212.563 9.83L211.268 16.025Z" fill="#FABCB2"/>
</svg>
